Model2392_S4_states																							
version=1																							
nRows=93																							
nColumns=24																							
inDegrees=yes																							
																							
"Units are S.I. units (second, meters, Newtons, ...)"																							
Angles are in degrees.																							
																							
endheader																							
time	pelvis_tilt	pelvis_list	pelvis_rotation	pelvis_tx	pelvis_ty	pelvis_tz	hip_flexion_r	hip_adduction_r	hip_rotation_r	knee_angle_r	ankle_angle_r	subtalar_angle_r	mtp_angle_r	hip_flexion_l	hip_adduction_l	hip_rotation_l	knee_angle_l	ankle_angle_l	subtalar_angle_l	mtp_angle	lumbar_extension	lumbar_bending	lumbar_rotation
1.87215167	0	0	0	0	0.95	0	7.47500005	0	0	-14.37304684	8.02681094	0	0	4.6754849	0	0	-35.8936248	-3.85419864	0	0	0	0	0
1.87368269	0	0	0	0	0.95	0	7.25905798	0	0	-14.26990057	8.01585307	0	0	4.82954607	0	0	-35.83875736	-3.6326261	0	0	0	0	0
1.87497908	0	0	0	0	0.95	0	7.07721125	0	0	-14.18419781	8.0209693	0	0	4.95902693	0	0	-35.78856897	-3.45132243	0	0	0	0	0
1.87627547	0	0	0	0	0.95	0	6.89660298	0	0	-14.10082052	8.04368446	0	0	5.08759399	0	0	-35.73500623	-3.2744696	0	0	0	0	0
1.87757187	0	0	0	0	0.95	0	6.71749049	0	0	-14.0203224	8.08325779	0	0	5.21522287	0	0	-35.67812164	-3.10048586	0	0	0	0	0
1.87886826	0	0	0	0	0.95	0	6.54004396	0	0	-13.94294411	8.13488317	0	0	5.34188869	0	0	-35.61796997	-2.92768675	0	0	0	0	0
1.87926204	0	0	0	0	0.95	0	6.4864894	0	0	-13.92006222	8.15189711	0	0	5.38016922	0	0	-35.59905985	-2.87518314	0	0	0	0	0
1.87954835	0	0	0	0	0.95	0	6.44765364	0	0	-13.9036053	8.16443512	0	0	5.40794473	0	0	-35.58512513	-2.83695854	0	0	0	0	0
1.87989777	0	0	0	0	0.95	0	6.40037679	0	0	-13.88372542	8.1797987	0	0	5.44177573	0	0	-35.5679084	-2.79022688	0	0	0	0	0
1.87996788	0	0	0	0	0.95	0	6.39090629	0	0	-13.87976338	8.18287842	0	0	5.44855521	0	0	-35.56442597	-2.78083692	0	0	0	0	0
1.8799956	0	0	0	0	0.95	0	6.3871625	0	0	-13.87819901	8.18409542	0	0	5.45123544	0	0	-35.56304623	-2.77712219	0	0	0	0	0
1.88001089	0	0	0	0	0.95	0	6.38509888	0	0	-13.87733716	8.1847661	0	0	5.45271287	0	0	-35.56228495	-2.77507391	0	0	0	0	0
1.88002617	0	0	0	0	0.95	0	6.38303551	0	0	-13.87647575	8.18543659	0	0	5.45419015	0	0	-35.56152323	-2.77302539	0	0	0	0	0
1.8801026	0	0	0	0	0.95	0	6.37272243	0	0	-13.87217504	8.18878563	0	0	5.46157449	0	0	-35.557708	-2.76277913	0	0	0	0	0
1.88048474	0	0	0	0	0.95	0	6.32125173	0	0	-13.85083222	8.20540484	0	0	5.49844352	0	0	-35.53846645	-2.71144921	0	0	0	0	0
1.88129074	0	0	0	0	0.95	0	6.21322189	0	0	-13.80671359	8.23917444	0	0	5.57591731	0	0	-35.49697975	-2.60257268	0	0	0	0	0
1.88244719	0	0	0	0	0.95	0	6.05952045	0	0	-13.74559202	8.28228151	0	0	5.68638354	0	0	-35.43530804	-2.44482334	0	0	0	0	0
1.88360364	0	0	0	0	0.95	0	5.90736049	0	0	-13.68701458	8.31654154	0	0	5.79602328	0	0	-35.37107555	-2.28560493	0	0	0	0	0
1.88511018	0	0	0	0	0.95	0	5.71135711	0	0	-13.6142818	8.34661554	0	0	5.93760263	0	0	-35.28346768	-2.0774523	0	0	0	0	0
1.88661671	0	0	0	0	0.95	0	5.51766932	0	0	-13.54518968	8.36321556	0	0	6.07775813	0	0	-35.19128078	-1.87101727	0	0	0	0	0
1.88812325	0	0	0	0	0.95	0	5.32604023	0	0	-13.47920667	8.37289686	0	0	6.2164857	0	0	-35.09437334	-1.66937979	0	0	0	0	0
1.88878504	0	0	0	0	0.95	0	5.24243728	0	0	-13.45103034	8.37683151	0	0	6.27697405	0	0	-35.05027985	-1.58308986	0	0	0	0	0
1.88938342	0	0	0	0	0.95	0	5.16711431	0	0	-13.42589194	8.38085858	0	0	6.33142928	0	0	-35.00960007	-1.50654307	0	0	0	0	0
1.88987754	0	0	0	0	0.95	0	5.10509329	0	0	-13.40532907	8.38473514	0	0	6.3762255	0	0	-34.9754246	-1.4445002	0	0	0	0	0
1.88997179	0	0	0	0	0.95	0	5.09327924	0	0	-13.40142298	8.38554263	0	0	6.38475328	0	0	-34.96884512	-1.43279164	0	0	0	0	0
1.88999751	0	0	0	0	0.95	0	5.09005702	0	0	-13.40035812	8.38576698	0	0	6.38707886	0	0	-34.96704674	-1.42960453	0	0	0	0	0
1.89000828	0	0	0	0	0.95	0	5.08870742	0	0	-13.39991218	8.38586147	0	0	6.38805287	0	0	-34.96629302	-1.42827045	0	0	0	0	0
1.89001905	0	0	0	0	0.95	0	5.08735789	0	0	-13.39946629	8.38595627	0	0	6.38902681	0	0	-34.96553903	-1.42693691	0	0	0	0	0
1.89007291	0	0	0	0	0.95	0	5.08061123	0	0	-13.3972377	8.38643493	0	0	6.39389542	0	0	-34.96176534	-1.42027745	0	0	0	0	0
1.8903422	0	0	0	0	0.95	0	5.04690265	0	0	-13.38611451	8.38894786	0	0	6.41821099	0	0	-34.94280208	-1.38718859	0	0	0	0	0
1.89168863	0	0	0	0	0.95	0	4.87893721	0	0	-13.33084556	8.40487295	0	0	6.53909901	0	0	-34.84560724	-1.22714755	0	0	0	0	0
1.89332316	0	0	0	0	0.95	0	4.67626289	0	0	-13.26419882	8.43292958	0	0	6.6842829	0	0	-34.72227122	-1.04494773	0	0	0	0	0
1.89495769	0	0	0	0	0.95	0	4.47491199	0	0	-13.19778145	8.47108189	0	0	6.82769855	0	0	-34.59310496	-0.87434135	0	0	0	0	0
1.89659222	0	0	0	0	0.95	0	4.27486355	0	0	-13.13142547	8.51812938	0	0	6.96929701	0	0	-34.45821189	-0.71200056	0	0	0	0	0
1.89801458	0	0	0	0	0.95	0	4.10186042	0	0	-13.07377302	8.56459753	0	0	7.09100446	0	0	-34.33628596	-0.57423342	0	0	0	0	0
1.89943694	0	0	0	0	0.95	0	3.92994937	0	0	-13.01651933	8.6149234	0	0	7.2112846	0	0	-34.21025058	-0.43679281	0	0	0	0	0
1.89971023	0	0	0	0	0.95	0	3.8970565	0	0	-13.00561144	8.62499133	0	0	7.23423042	0	0	-34.18557298	-0.41020564	0	0	0	0	0
1.89990998	0	0	0	0	0.95	0	3.87304536	0	0	-12.99766566	8.63243222	0	0	7.25096783	0	0	-34.16744316	-0.39071216	0	0	0	0	0
1.89999968	0	0	0	0	0.95	0	3.86227126	0	0	-12.99410558	8.63579666	0	0	7.25847479	0	0	-34.15927621	-0.38193973	0	0	0	0	0
1.90001639	0	0	0	0	0.95	0	3.86026414	0	0	-12.99344275	8.63642521	0	0	7.25987305	0	0	-34.15775259	-0.38030368	0	0	0	0	0
1.90003311	0	0	0	0	0.95	0	3.8582572	0	0	-12.99278012	8.63705425	0	0	7.26127111	0	0	-34.15622842	-0.3786672	0	0	0	0	0
1.90011668	0	0	0	0	0.95	0	3.84822533	0	0	-12.98946979	8.64020705	0	0	7.26825843	0	0	-34.14859937	-0.37047826	0	0	0	0	0
1.90053457	0	0	0	0	0.95	0	3.79813793	0	0	-12.97299555	8.65616159	0	0	7.30312019	0	0	-34.11024981	-0.32935929	0	0	0	0	0
1.90186512	0	0	0	0	0.95	0	3.63951656	0	0	-12.92159811	8.70887223	0	0	7.41328935	0	0	-33.98588386	-0.19626977	0	0	0	0	0
1.90319567	0	0	0	0	0.95	0	3.48230445	0	0	-12.8721337	8.76305077	0	0	7.52218875	0	0	-33.85806531	-0.05999857	0	0	0	0	0
1.90452622	0	0	0	0	0.95	0	3.32654143	0	0	-12.82472843	8.81587621	0	0	7.6298153	0	0	-33.72672883	0.07827089	0	0	0	0	0
1.90648528	0	0	0	0	0.95	0	3.0997329	0	0	-12.75840291	8.88504811	0	0	7.78596417	0	0	-33.52674058	0.28099809	0	0	0	0	0
1.90844434	0	0	0	0	0.95	0	2.87565111	0	0	-12.69547113	8.93776583	0	0	7.93936437	0	0	-33.3185759	0.47528655	0	0	0	0	0
1.90909322	0	0	0	0	0.95	0	2.80196603	0	0	-12.67521247	8.9509377	0	0	7.98957153	0	0	-33.24777482	0.53634439	0	0	0	0	0
1.90955142	0	0	0	0	0.95	0	2.7500822	0	0	-12.6610503	8.95891454	0	0	8.02484439	0	0	-33.19721765	0.57820732	0	0	0	0	0
1.90981712	0	0	0	0	0.95	0	2.7200496	0	0	-12.65288683	8.96304108	0	0	8.04523024	0	0	-33.16768656	0.60196811	0	0	0	0	0
1.90993799	0	0	0	0	0.95	0	2.70639985	0	0	-12.64918417	8.9647981	0	0	8.05448767	0	0	-33.15420014	0.61264681	0	0	0	0	0
1.90999332	0	0	0	0	0.95	0	2.7001533	0	0	-12.64749123	8.96557755	0	0	8.05872248	0	0	-33.14801486	0.61750792	0	0	0	0	0
1.91000767	0	0	0	0	0.95	0	2.69853471	0	0	-12.64705271	8.96577701	0	0	8.05981963	0	0	-33.14641076	0.61876485	0	0	0	0	0
1.91002201	0	0	0	0	0.95	0	2.69691622	0	0	-12.64661429	8.96597541	0	0	8.06091663	0	0	-33.1448062	0.62002059	0	0	0	0	0
1.91009371	0	0	0	0	0.95	0	2.68882542	0	0	-12.64442351	8.96695175	0	0	8.06639945	0	0	-33.13677652	0.6262814	0	0	0	0	0
1.91045225	0	0	0	0	0.95	0	2.64841165	0	0	-12.63350243	8.97144587	0	0	8.09375919	0	0	-33.09645554	0.65712977	0	0	0	0	0
1.91167816	0	0	0	0	0.95	0	2.51071054	0	0	-12.59653655	8.98243414	0	0	8.18662385	0	0	-32.95641263	0.75663205	0	0	0	0	0
1.91290407	0	0	0	0	0.95	0	2.37371885	0	0	-12.56015281	8.98900801	0	0	8.27842442	0	0	-32.81301193	0.8468233	0	0	0	0	0
1.91482202	0	0	0	0	0.95	0	2.16080929	0	0	-12.50480842	9.00099776	0	0	8.41988988	0	0	-32.58203127	0.97150477	0	0	0	0	0
1.91632128	0	0	0	0	0.95	0	1.99565226	0	0	-12.46346594	9.0218122	0	0	8.52861318	0	0	-32.39601574	1.05908629	0	0	0	0	0
1.91782053	0	0	0	0	0.95	0	1.83168941	0	0	-12.42429934	9.05980683	0	0	8.63568275	0	0	-32.20541372	1.14290974	0	0	0	0	0
1.91912836	0	0	0	0	0.95	0	1.68966524	0	0	-12.39209016	9.10915705	0	0	8.7277194	0	0	-32.03555779	1.21665999	0	0	0	0	0
1.91954714	0	0	0	0	0.95	0	1.64438542	0	0	-12.38216418	9.12811087	0	0	8.75692095	0	0	-31.9804833	1.24090843	0	0	0	0	0
1.91978562	0	0	0	0	0.95	0	1.61864238	0	0	-12.37659384	9.13955182	0	0	8.77349177	0	0	-31.94897409	1.25491455	0	0	0	0	0
1.91993086	0	0	0	0	0.95	0	1.6029792	0	0	-12.37323015	9.14674254	0	0	8.78356299	0	0	-31.92973257	1.26352272	0	0	0	0	0
1.91998833	0	0	0	0	0.95	0	1.59678486	0	0	-12.37190521	9.14963336	0	0	8.78754351	0	0	-31.92210853	1.26694591	0	0	0	0	0
1.92000461	0	0	0	0	0.95	0	1.59503055	0	0	-12.37153051	9.15045688	0	0	8.7886706	0	0	-31.91994781	1.26791739	0	0	0	0	0
1.92002088	0	0	0	0	0.95	0	1.59327639	0	0	-12.37115608	9.15128246	0	0	8.78979749	0	0	-31.9177866	1.26888968	0	0	0	0	0
1.92010228	0	0	0	0	0.95	0	1.58450767	0	0	-12.36928797	9.15544084	0	0	8.79542897	0	0	-31.90697324	1.27376341	0	0	0	0	0
1.92050924	0	0	0	0	0.95	0	1.54071673	0	0	-12.36004665	9.17697097	0	0	8.82351208	0	0	-31.85272429	1.29845199	0	0	0	0	0
1.92130431	0	0	0	0	0.95	0	1.4554115	0	0	-12.34244396	9.22217492	0	0	8.87802072	0	0	-31.74586847	1.34831626	0	0	0	0	0
1.92259521	0	0	0	0	0.95	0	1.31756725	0	0	-12.31494601	9.30137629	0	0	8.96552228	0	0	-31.56992312	1.4337849	0	0	0	0	0
1.9238861	0	0	0	0	0.95	0	1.18045634	0	0	-12.28839578	9.38162173	0	0	9.05179715	0	0	-31.39089965	1.5235785	0	0	0	0	0
1.92559022	0	0	0	0	0.95	0	1.00040856	0	0	-12.2540183	9.47711951	0	0	9.16383529	0	0	-31.14969656	1.64442732	0	0	0	0	0
1.92710614	0	0	0	0	0.95	0	0.84101168	0	0	-12.22344606	9.54242258	0	0	9.26175337	0	0	-30.93028286	1.74885084	0	0	0	0	0
1.92862206	0	0	0	0	0.95	0	0.6822434	0	0	-12.19251452	9.58363466	0	0	9.35805307	0	0	-30.70613655	1.84520451	0	0	0	0	0
1.92916546	0	0	0	0	0.95	0	0.62547638	0	0	-12.18132067	9.59225238	0	0	9.39218388	0	0	-30.62461285	1.87694407	0	0	0	0	0
1.92953846	0	0	0	0	0.95	0	0.58655518	0	0	-12.17360842	9.59634118	0	0	9.4154939	0	0	-30.56829165	1.89772919	0	0	0	0	0
1.92997859	0	0	0	0	0.95	0	0.54067673	0	0	-12.16448333	9.59932794	0	0	9.44287613	0	0	-30.50145439	1.92113496	0	0	0	0	0
1.92999957	0	0	0	0	0.95	0	0.53849134	0	0	-12.16404784	9.59942217	0	0	9.44417792	0	0	-30.49825847	1.92221919	0	0	0	0	0
1.93000911	0	0	0	0	0.95	0	0.53749799	0	0	-12.16384987	9.59946358	0	0	9.44476956	0	0	-30.49680544	1.92271108	0	0	0	0	0
1.93001864	0	0	0	0	0.95	0	0.53650467	0	0	-12.16365188	9.5995041	0	0	9.44536114	0	0	-30.49535221	1.92320237	0	0	0	0	0
1.93006632	0	0	0	0	0.95	0	0.53153843	0	0	-12.16266184	9.5996935	0	0	9.4483181	0	0	-30.48808316	1.92564977	0	0	0	0	0
1.93030471	0	0	0	0	0.95	0	0.50671652	0	0	-12.15770855	9.60031471	0	0	9.46307964	0	0	-30.45166542	1.93765883	0	0	0	0	0
1.93129987	0	0	0	0	0.95	0	0.40327165	0	0	-12.13701436	9.59757873	0	0	9.52428396	0	0	-30.29833531	1.98358413	0	0	0	0	0
1.93231557	0	0	0	0	0.95	0	0.29801483	0	0	-12.11601957	9.58809737	0	0	9.58605687	0	0	-30.13968535	2.02345827	0	0	0	0	0
1.93333126	0	0	0	0	0.95	0	0.19313687	0	0	-12.09541668	9.57577585	0	0	9.64712804	0	0	-29.97888955	2.05676291	0	0	0	0	0
1.93492025	0	0	0	0	0.95	0	0.02995986	0	0	-12.06468026	9.56188762	0	0	9.74125772	0	0	-29.72315801	2.0981982	0	0	0	0	0
1.93650923	0	0	0	0	0.95	0	-0.13195725	0	0	-12.03666488	9.56936592	0	0	9.83365902	0	0	-29.46256956	2.13152014	0	0	0	0	0
1.937912	0	0	0	0	0.95	0	-0.27376809	0	0	-12.01471496	9.60324969	0	0	9.91379516	0	0	-29.22873416	2.15923168	0	0	0	0	0
1.93931476	0	0	0	0	0.95	0	-0.41452696	0	0	-11.99545245	9.6657179	0	0	9.99259206	0	0	-28.99157613	2.18972402	0	0	0	0	0
1.93957503	0	0	0	0	0.95	0	-0.44053298	0	0	-11.99215577	9.68032434	0	0	10.00706564	0	0	-28.94722529	2.19598008	0	0	0	0	0
